<?xml version="1.0" encoding="utf-8"?>
<!-- Generator: Adobe Illustrator 24.3.0, SVG Export Plug-In . SVG Version: 6.00 Build 0)  -->
<svg version="1.1" id="图层_1" xmlns="http://www.w3.org/2000/svg" xmlns:xlink="http://www.w3.org/1999/xlink" x="0px" y="0px"
	 viewBox="0 0 1920 1080" style="enable-background:new 0 0 1920 1080;" xml:space="preserve">
<style type="text/css">
	.st0{clip-path:url(#SVGID_2_);fill:#009BD4;}
	.st1{display:none;fill:#FFFFFF;}
	.st2{fill:#FFFFFF;}
</style>
<g>
	<g>
		<defs>
			<rect id="SVGID_1_" x="550.08" y="135.76" width="819.84" height="820.72"/>
		</defs>
		<clipPath id="SVGID_2_">
			<use xlink:href="#SVGID_1_"  style="overflow:visible;"/>
		</clipPath>
		<path class="st0" d="M959.48,136.44c-226.12,0-409.52,183.32-409.52,409.52c0,226.2,183.32,409.52,409.52,409.52
			c226.2,0,409.52-183.32,409.52-409.52C1369,319.77,1185.68,136.44,959.48,136.44z M784.99,479.78c-6.45,0-6.43-10,0-10
			C791.44,469.78,791.43,479.78,784.99,479.78z M1153.33,403.44c-2.92,8.99-7.92,16.77-14.99,23.33
			c-13.15,13.15-32.68,21.23-51.27,21.23c-19.64,0-37.08-8.21-51.27-21.23c-14.24-13.07-20.39-32.52-21.23-51.27
			c-0.38-9.98,1.7-19.29,6.24-27.93c2.92-8.99,7.92-16.77,14.99-23.33c13.15-13.15,32.68-21.23,51.27-21.23
			c19.64,0,37.08,8.21,51.27,21.23c14.24,13.07,20.4,32.52,21.23,51.27C1159.95,385.49,1157.87,394.8,1153.33,403.44z"/>
		<path class="st0" d="M959.48,136.44"/>
	</g>
	<path class="st1" d="M959.48,244.66c-166.45,0-301.3,134.93-301.3,301.3c0,166.37,134.93,301.38,301.3,301.38
		c166.37,0,301.38-134.93,301.38-301.38C1260.86,379.52,1125.93,244.66,959.48,244.66L959.48,244.66z M1219.51,655.78
		c-14.24,33.59-34.56,63.75-60.47,89.66c-18.48,18.48-39.04,34.07-61.51,46.71c-9.12,5.12-18.48,9.68-28.16,13.84
		c-0.8,0.32-1.52,0.64-2.32,0.96c-34.07,14.08-70.3,21.19-107.5,21.19c-38.08,0-75.03-7.44-109.82-22.15
		c-33.59-14.24-63.75-34.55-89.66-60.47c-25.91-25.91-46.23-56.07-60.47-89.66c-2.16-5.04-4.16-10.16-5.92-15.36
		c-2.24-6.32-4.24-12.72-6.08-19.12c-6-21.68-9.35-44.07-10-66.87c-0.08-2.8-0.16-5.6-0.16-8.48c0-3.6,0.08-7.2,0.24-10.8
		c1.28-34.31,8.64-67.59,22-99.02c14.24-33.59,34.55-63.75,60.47-89.66c25.91-25.91,56.07-46.23,89.66-60.46
		c34.79-14.72,71.74-22.16,109.82-22.16c38.07,0,75.03,7.44,109.82,22.16c33.59,14.23,63.75,34.55,89.66,60.46
		c25.91,25.92,46.23,56.07,60.47,89.66c14.72,34.79,22.16,71.75,22.16,109.82c0,4.72-0.16,9.52-0.32,14.23
		c-0.4,8.48-1.2,16.96-2.4,25.28C1235.51,609.63,1229.03,633.14,1219.51,655.78L1219.51,655.78z M1219.51,655.78"/>
	<path class="st2" d="M791.59,387.11"/>
	<path class="st2" d="M831.66,569l48.15-14.16l16.56,7.92l11.84,5.68c1.36,0.64,2.72,0.96,4.16,0.96c1.36,0,2.64-0.32,3.84-0.8
		l5.6-7.12c0.8-4.16-1.28-8.48-5.12-10.32l-8-3.84l-23.76-11.44c-2.16-1.04-4.56-1.2-6.88-0.56l-43.04,12.72l-29.75-80.71
		c-1.44-3.84-5.04-6.32-9.04-6.32H749.6c-3.52,0-6.72,1.84-8.4,4.88l-39.43,70.23l-24.08-0.96l-7.2-0.24
		c-5.28-0.24-9.76,3.92-10,9.2c-0.24,5.36,3.92,9.76,9.2,10l7.92,0.32l29.27,1.12c3.6,0.16,6.96-1.76,8.72-4.88l39.51-70.46h34.31
		l30.48,82.86C821.67,567.88,826.78,570.44,831.66,569z M784.99,479.78c-6.45,0-6.43-10,0-10
		C791.44,469.78,791.43,479.78,784.99,479.78z"/>
	<path class="st2" d="M773.12,622.67c-6.96-0.32-13.76-0.56-20.32-0.72c-1.2,0-2.4-0.08-3.6-0.08c-3.36,1.52-7.92,2.32-13.76,2.32
		c-4.88,0-10.72-0.56-14.4-2.8c-8.48-0.08-16.08-0.08-22.23-0.08c-4.56,0-8.4,0-11.36,0.08c-4.24,0.08-6.72,0.08-6.8,0.08
		c-5.28,0.08-9.52,4.48-9.44,9.76c0.08,5.28,4.48,9.44,9.76,9.44c0.16,0,4.72-0.08,12.48-0.16c6,0,13.92-0.08,23.2,0
		c9.28,0.08,19.83,0.24,31.27,0.56c1.44,0.08,2.88,0.08,4.32,0.16c4.88,0.16,9.84,0.32,14.88,0.48c0.64-5.36,2.96-12,6.16-18.96
		C773.28,622.67,773.2,622.67,773.12,622.67z"/>
	<path class="st2" d="M1097.45,792.15c-0.16,0-0.32-0.08-0.48-0.08c-0.56-0.08-53.51-7.6-107.5-18.8
		c-31.52-6.56-57.11-13.12-76.07-19.44c-31.2-10.4-34.88-17.03-35.19-17.59c-0.4-1.44-1.04-4.16,4.56-9.2
		c5.2-4.72,13.6-9.28,21.68-13.68c15.91-8.71,32.39-17.75,35.99-32.63c1.84-7.52,0.08-15.28-5.2-23.11
		c-7.04-10.4-26.64-24.56-111.82-31.84c-6.4-0.56-13.2-1.04-20.39-1.52c2.4,7.36,3.68,14.16,3.2,19.44
		c6.8,0.48,13.12,0.96,19.12,1.52c76.86,7.04,91.42,19.28,94.06,23.2c3.2,4.72,2.64,7.04,2.48,7.76
		c-1.6,6.64-15.43,14.24-26.55,20.32c-9.03,4.96-18.48,10.08-25.35,16.24c-11.91,10.72-12.16,21.52-10.23,28.56
		c3.44,12.71,20.88,28.63,123.89,50.23c31.11,6.56,62.15,11.84,83.42,15.28c16.48,2.64,27.03,4.16,27.28,4.16
		c0.48,0.08,0.88,0.08,1.36,0.08c4.72,0,8.8-3.44,9.52-8.24C1105.85,797.83,1102.41,793.11,1097.45,792.15z"/>
	<path class="st2" d="M921.81,561.48"/>
	<path class="st2" d="M1251.59,575.56l-11.92-12.4l-37.35-39.03c-2.08-2.16-5.04-3.2-8-2.88l-23.51,2.56l-33.99-55.19
		c-1.44-2.24-3.68-3.76-6.24-4.32c-2.56-0.56-5.28,0-7.44,1.52l-19.2,13.28l-1.52-2.32l-5.52-8.56l-5.6-8.64l-6.08-9.44
		c-0.57-0.86-1.27-1.62-2.06-2.26c-3.4-0.19-6.74-0.63-9.99-1.3c-1.33,0.6-2.52,1.5-3.46,2.68l-33.59,41.43l-7.84,9.68l-7.36,9.04
		l-17.76,21.84l-55.03-22.08c-4-1.6-8.48-0.4-11.12,2.96l-30.16,38.08l-12.23,15.44l-32.48,40.95c-3.28,4.16-2.56,10.24,1.6,13.52
		c1.84,1.44,3.92,2.08,6,2.08c2.8,0,5.6-1.2,7.52-3.6l37.27-47.03l5.6-7.12l27.52-34.71l54.95,22c2.4,0.96,5.04,0.88,7.36-0.08
		c1.44-0.56,2.64-1.52,3.68-2.72l15.36-18.87l17.2-21.12l9.84-12.16l13.44-16.56l6.88-8.48l1.6,2.48l5.2,8.08l5.28,8.16l4.8,7.44
		c1.36,2.24,3.6,3.76,6.16,4.24c2.56,0.48,5.2,0,7.36-1.52l19.04-13.2l31.84,51.75c1.92,3.12,5.52,4.88,9.2,4.48l24.8-2.72
		l45.51,47.67l0.4,0.4c3.68,3.83,9.76,4,13.6,0.32C1254.95,585.64,1255.11,579.56,1251.59,575.56z"/>
	<path class="st2" d="M763.21,573.72c-7.6-16.4-16.72-29.59-17.11-30.16c-1.76-2.48-4.56-4-7.6-4.08c-3.04-0.16-5.92,1.2-7.84,3.6
		c-0.48,0.56-11.12,13.92-20.48,30.55c-12.08,21.52-16.48,38.15-13.2,50.71c0.48,1.84,1.12,3.6,1.92,5.28c3.2,6.64,8.56,11.28,16,14
		c5.2,1.92,11.44,2.88,18.71,2.88c4.56,0,8.72-0.4,12.48-1.12c1.52-0.32,3.04-0.64,4.4-1.12c8.96-2.64,15.36-7.76,19.28-15.2
		c0.56-1.04,1.04-2.16,1.44-3.28c3.68-9.28,3.12-21.12-1.44-35.43C768.09,585.16,765.93,579.56,763.21,573.72z M752.89,620.19
		c-1.04,2-2.88,3.6-5.36,4.8c-3.36,1.52-7.92,2.32-13.76,2.32c-4.88,0-10.71-0.56-14.39-2.8c-1.36-0.8-2.4-1.84-3.04-3.2
		c-5.04-10.4,7.92-35.83,21.27-55.27C748.73,585.16,758.49,609.48,752.89,620.19z"/>
	<path class="st2" d="M737.61,566.04"/>
	<path class="st2" d="M824.23,643.53c-1.68-7.04-4.48-14.71-8.4-23.03c-7.6-16.48-16.79-29.59-17.11-30.15
		c-1.76-2.48-4.56-4-7.6-4.08c-3.04-0.08-5.92,1.28-7.84,3.6c-0.32,0.4-5.04,6.4-10.96,15.2c-3.04,4.48-6.32,9.76-9.44,15.36
		c-3.92,6.96-7.04,13.36-9.28,19.36c-2.72,7.04-4.32,13.36-4.8,19.04c0,0.4-0.08,0.8-0.08,1.2c-0.4,6.16,0.64,11.6,2.88,16.32
		c5.36,11.2,17.04,16.88,34.71,16.88c18,0,30.15-5.84,36.23-17.44c2-3.76,3.2-8.08,3.6-12.8
		C826.63,657.21,825.99,650.73,824.23,643.53L824.23,643.53z M805.51,666.88c-2.48,4.72-8.88,7.04-19.2,7.04
		c-6.64,0-15.04-1.04-17.44-6c-1.04-2.24-1.28-5.2-0.88-8.64c0.64-5.36,2.96-12,6.16-18.96c4.24-9.2,10.08-19.04,16.08-27.68
		c5.36,9.28,10.4,19.68,13.6,29.28c2.4,7.36,3.68,14.16,3.2,19.43C806.79,663.52,806.31,665.36,805.51,666.88L805.51,666.88z
		 M1139.13,577.14c-3.44-10.64-12.8-22.55-28.31-36.07c-15.6-13.6-31.75-23.91-32.47-24.39c-1.12-0.72-2.4-1.2-3.68-1.36
		c-2.24-0.32-4.64,0.08-6.64,1.36c-0.24,0.16-2.16,1.36-5.2,3.44c-6.16,4.24-16.8,11.84-27.27,20.95c-1.44,1.28-2.8,2.48-4.08,3.68
		c-8.4,7.76-14.72,14.96-18.96,21.6c-6.16,9.76-8.08,18.48-5.76,26.31c5.28,18,29.59,22.96,52.31,24.08
		c3.36,0.16,6.72,0.24,9.92,0.32h4.32c3.12,0,6.32,0,9.6-0.16c4.16-0.16,8.48-0.4,12.72-0.8c1.76-1.68,3.68-3.44,5.76-5.2
		c9.44-8.24,19.36-15.36,25.11-19.36c2.72,1.84,6.32,4.4,10.32,7.44c1.28-1.92,2.24-4,2.96-6.4
		C1141.13,587.86,1140.89,582.66,1139.13,577.14L1139.13,577.14z M1121.21,587.38c-0.24,0.96-3.44,8.4-33.75,10.24
		c-4.24,0.24-8.96,0.4-14.32,0.4c-43.75,0-47.75-9.52-48.07-10.64c-1.28-4.24,4-15.12,22.95-31.67
		c9.44-8.24,19.28-15.36,25.12-19.36c5.76,4,15.6,11.04,24.95,19.2c8.96,7.84,14.88,14.39,18.48,19.52
		C1120.73,580.98,1121.93,585.06,1121.21,587.38L1121.21,587.38z M1121.21,587.38"/>
	<path class="st2" d="M1165.53,619.5c-9.19-8-18.55-14.88-24.88-19.28c-4.4-3.04-7.28-4.88-7.6-5.12c-3.12-2-7.12-2-10.32,0
		c-0.24,0.16-1.92,1.2-4.64,3.04c-6,4.08-17.12,11.92-27.83,21.36c-0.48,0.4-0.88,0.8-1.28,1.12c-3.12,2.72-6,5.44-8.56,8.08
		c-3.92,4-7.28,7.83-10,11.51c-6.56,8.72-9.84,16.72-9.92,24v0.72c0,2.16,0.32,4.24,0.96,6.24c2.88,10,11.76,16,22.88,19.52
		c10.32,3.28,22.56,4.48,34,4.8c3.28,0.08,6.48,0.16,9.6,0.16c4.56,0,9.36-0.08,14.24-0.32c22.63-1.2,47.03-6.08,52.31-24.08
		C1198.57,657.01,1189.13,640.05,1165.53,619.5L1165.53,619.5z M1176.01,665.8c-0.32,1.12-4.32,10.64-48.07,10.64
		c-26.23,0-38.23-3.44-43.59-6.4c-3.6-2-4.32-3.76-4.48-4.24c-0.64-2.24,0.48-6.32,4.48-12.07c2.8-4,6.88-8.8,12.72-14.4
		c1.76-1.68,3.68-3.44,5.76-5.2c9.44-8.24,19.36-15.35,25.12-19.35c2.72,1.84,6.32,4.4,10.32,7.44c4.56,3.44,9.68,7.44,14.64,11.84
		C1171.94,650.61,1177.21,661.49,1176.01,665.8L1176.01,665.8z M1060.52,696.28c-1.92-1.76-3.92-3.6-6-5.44
		c-15.6-13.6-31.75-23.91-32.47-24.39c-3.12-2-7.2-2-10.32,0c-0.72,0.4-16.88,10.8-32.47,24.39c-23.6,20.56-33.04,37.52-28.88,51.67
		c6.4,21.91,41.03,24.48,66.47,24.48c20.72,0,47.51-1.68,60.23-14.08c2.88-2.88,5.04-6.24,6.24-10.32c0.56-2,0.88-4.08,0.96-6.24
		v-0.72C1084.19,724.2,1076.35,711.24,1060.52,696.28L1060.52,696.28z M968.78,737.15c-1.28-4.32,4-15.12,22.95-31.67
		c9.44-8.24,19.28-15.36,25.12-19.36c5.76,4,15.59,11.04,24.95,19.2c9.04,7.92,15.04,14.55,18.64,19.75c4,5.76,5.12,9.84,4.48,12.08
		c-0.16,0.4-0.88,2.24-4.48,4.16c-5.44,2.96-17.36,6.4-43.59,6.4C973.17,747.79,969.09,738.19,968.78,737.15L968.78,737.15z
		 M968.78,737.15"/>
	<path class="st2" d="M1139.77,695.72v64.07c0,5.28-4.32,9.6-9.6,9.6h-4.64c-5.28,0-9.6-4.32-9.6-9.6v-64.07
		c0-5.28,4.32-9.6,9.6-9.6h4.64C1135.53,686.12,1139.77,690.36,1139.77,695.72L1139.77,695.72z M1139.77,695.72"/>
	<path class="st2" d="M1081.94,611.4v17.28c-4,5.76-5.12,9.84-4.48,12.07c0.16,0.4,0.88,2.24,4.48,4.24v73.5
		c0,4.48-3.04,8.24-7.2,9.28c-0.8,0.24-1.6,0.32-2.4,0.32h-4.64c-5.28,0-9.6-4.32-9.6-9.6v-2.24c3.6-2,4.32-3.76,4.48-4.16
		c0.64-2.24-0.48-6.32-4.48-12.08V611.4c0-5.28,4.32-9.6,9.6-9.6h4.64c2.16,0,4.16,0.72,5.76,1.92
		C1080.42,605.4,1081.94,608.2,1081.94,611.4L1081.94,611.4z M1081.94,611.4"/>
</g>
</svg>
