<svg t="1661760015645" class="icon" viewBox="0 0 1024 1024" version="1.1" xmlns="http://www.w3.org/2000/svg" p-id="5629" width="32" height="32"><path d="M343.104 565.472a70.976 70.976 0 1 0 12.8-46.272l-119.552-33.712a85.376 85.376 0 0 0-0.48-28.8l338.928-195.68a93.04 93.04 0 1 0-27.408-39.6l-331.92 191.648a92.448 92.448 0 1 0 1.824 116.896z m70.672-28.32a23.2 23.2 0 1 1-23.184 23.2 23.216 23.216 0 0 1 23.184-23.2z m220.592-391.104a44.432 44.432 0 1 1-44.432 44.432 44.48 44.48 0 0 1 44.432-44.432z m-489.472 371.056a44.432 44.432 0 1 1 44.432-44.432 44.48 44.48 0 0 1-44.432 44.432z" fill="#666666" p-id="5630"></path><path d="M879.104 458.88a92.272 92.272 0 0 0-72.4 35.12l-125.808-35.488a70.976 70.976 0 1 0-12.8 46.272l119.552 33.728a84.288 84.288 0 0 0 0.48 28.8l-338.928 195.664a93.04 93.04 0 1 0 27.408 39.6l331.936-191.632a92.4 92.4 0 1 0 70.544-152z m-268.896 27.952a23.2 23.2 0 1 1 23.2-23.184 23.216 23.216 0 0 1-23.2 23.184z m-220.576 391.104a44.432 44.432 0 1 1 44.432-44.432 44.48 44.48 0 0 1-44.432 44.432z m489.472-282.176a44.432 44.432 0 1 1 44.432-44.448 44.512 44.512 0 0 1-44.432 44.464z" fill="#1771B9" p-id="5631"></path></svg>